<svg width="14" height="13" viewBox="0 0 14 13" fill="none" xmlns="http://www.w3.org/2000/svg">
<path fill-rule="evenodd" clip-rule="evenodd" d="M12.8404 5.41971L7.7684 0.239859C7.44632 -0.079953 6.79208 -0.079953 6.4703 0.239859C6.1483 0.559973 6.1483 1.0732 6.4703 1.39308L10.4338 5.18449H1.56981C1.11436 5.18449 0.75 5.54649 0.75 5.99926C0.75 6.45204 1.11436 6.81426 1.56981 6.81426H10.4338L6.4703 10.6057C6.1483 10.9256 6.18177 11.4153 6.4703 11.7586C6.72693 12.0639 6.98495 12.0639 7.19165 12.0639C7.39805 12.0639 7.61059 11.9855 7.7684 11.8225L12.8345 6.57874C13.1624 6.25305 13.1624 5.73363 12.8404 5.41971Z" fill="white"/>
</svg>
